{
  "accessors": [
    {
      "bufferView": 2,
      "componentType": 5126,
      "count": 2864,
      "max": [
        48.659759521484375,
        19.57155990600586,
        67.14888763427734
      ],
      "min": [
        -47.770782470703125,
        0.177853062748909,
        -91.7326889038086
      ],
      "type": "VEC3"
    },
    {
      "bufferView": 2,
      "byteOffset": 34368,
      "componentType": 5126,
      "count": 2864,
      "max": [
        0.9972429275512695,
        0.9948881268501282,
        0.9999266862869263
      ],
      "min": [
        -0.9972447752952576,
        -0.9948923587799072,
        -0.9999268651008606
      ],
      "type": "VEC3"
    },
    {
      "bufferView": 1,
      "componentType": 5126,
      "count": 2864,
      "max": [
        1.0,
        1.0
      ],
      "min": [
        0.0,
        0.0
      ],
      "type": "VEC2"
    },
    {
      "bufferView": 0,
      "componentType": 5125,
      "count": 8232,
      "type": "SCALAR"
    },
    {
      "bufferView": 2,
      "byteOffset": 68736,
      "componentType": 5126,
      "count": 24,
      "max": [
        64.52699279785156,
        -7.662981033325195,
        72.70219421386719
      ],
      "min": [
        -57.57796859741211,
        -7.762980937957764,
        -127.29780578613281
      ],
      "type": "VEC3"
    },
    {
      "bufferView": 2,
      "byteOffset": 69024,
      "componentType": 5126,
      "count": 24,
      "max": [
        1.0,
        1.0,
        1.0
      ],
      "min": [
        -1.0,
        -1.0,
        -1.0
      ],
      "type": "VEC3"
    },
    {
      "bufferView": 1,
      "byteOffset": 22912,
      "componentType": 5126,
      "count": 24,
      "max": [
        1.0,
        1.0
      ],
      "min": [
        0.0,
        0.0
      ],
      "type": "VEC2"
    },
    {
      "bufferView": 0,
      "byteOffset": 32928,
      "componentType": 5125,
      "count": 36,
      "type": "SCALAR"
    },
    {
      "bufferView": 2,
      "byteOffset": 69312,
      "componentType": 5126,
      "count": 1224,
      "max": [
        48.41537094116211,
        1.2165881395339966,
        64.07526397705078
      ],
      "min": [
        -48.41537094116211,
        -3.492708921432495,
        -92.5552978515625
      ],
      "type": "VEC3"
    },
    {
      "bufferView": 2,
      "byteOffset": 84000,
      "componentType": 5126,
      "count": 1224,
      "max": [
        0.9806897044181824,
        1.0,
        0.9806897640228271
      ],
      "min": [
        -0.9806897044181824,
        -1.0,
        -0.9806899428367615
      ],
      "type": "VEC3"
    },
    {
      "bufferView": 1,
      "byteOffset": 23104,
      "componentType": 5126,
      "count": 1224,
      "max": [
        1.0,
        1.0
      ],
      "min": [
        0.0,
        0.0
      ],
      "type": "VEC2"
    },
    {
      "bufferView": 0,
      "byteOffset": 33072,
      "componentType": 5125,
      "count": 4032,
      "type": "SCALAR"
    },
    {
      "bufferView": 2,
      "byteOffset": 98688,
      "componentType": 5126,
      "count": 96,
      "max": [
        68.81815338134766,
        1.4390902519226074,
        76.7884750366211
      ],
      "min": [
        -61.911136627197266,
        -7.679560661315918,
        -131.45802307128906
      ],
      "type": "VEC3"
    },
    {
      "bufferView": 2,
      "byteOffset": 99840,
      "componentType": 5126,
      "count": 96,
      "max": [
        1.0,
        1.0,
        1.0
      ],
      "min": [
        -1.0,
        -1.0,
        -1.0
      ],
      "type": "VEC3"
    },
    {
      "bufferView": 1,
      "byteOffset": 32896,
      "componentType": 5126,
      "count": 96,
      "max": [
        1.0,
        1.0
      ],
      "min": [
        0.0,
        0.0
      ],
      "type": "VEC2"
    },
    {
      "bufferView": 0,
      "byteOffset": 49200,
      "componentType": 5125,
      "count": 144,
      "type": "SCALAR"
    },
    {
      "bufferView": 2,
      "byteOffset": 100992,
      "componentType": 5126,
      "count": 24,
      "max": [
        64.52699279785156,
        -2.317110776901245,
        72.70219421386719
      ],
      "min": [
        -57.57796859741211,
        -6.8056535720825195,
        -127.29780578613281
      ],
      "type": "VEC3"
    },
    {
      "bufferView": 2,
      "byteOffset": 101280,
      "componentType": 5126,
      "count": 24,
      "max": [
        1.0,
        1.0,
        1.0
      ],
      "min": [
        -1.0,
        -1.0,
        -1.0
      ],
      "type": "VEC3"
    },
    {
      "bufferView": 1,
      "byteOffset": 33664,
      "componentType": 5126,
      "count": 24,
      "max": [
        1.0,
        1.0
      ],
      "min": [
        0.0,
        0.0
      ],
      "type": "VEC2"
    },
    {
      "bufferView": 0,
      "byteOffset": 49776,
      "componentType": 5125,
      "count": 36,
      "type": "SCALAR"
    }
  ],
  "asset": {
    "extras": {
      "author": "museudocomputador (https://sketchfab.com/museudocomputador)",
      "license": "CC-BY-4.0 (http://creativecommons.org/licenses/by/4.0/)",
      "source": "https://sketchfab.com/3d-models/plugboard-ancient-coding-b483e91712804a7bb387969c6d054870",
      "title": "Plugboard - \"Ancient\" Coding"
    },
    "generator": "Sketchfab-15.28.0",
    "version": "2.0"
  },
  "bufferViews": [
    {
      "buffer": 0,
      "byteLength": 49920,
      "name": "floatBufferViews",
      "target": 34963
    },
    {
      "buffer": 0,
      "byteLength": 33856,
      "byteOffset": 49920,
      "byteStride": 8,
      "name": "floatBufferViews",
      "target": 34962
    },
    {
      "buffer": 0,
      "byteLength": 101568,
      "byteOffset": 83776,
      "byteStride": 12,
      "name": "floatBufferViews",
      "target": 34962
    }
  ],
  "buffers": [
    {
      "byteLength": 185344,
      "uri": "scene.bin"
    }
  ],
  "extensionsUsed": [
    "KHR_materials_specular"
  ],
  "images": [
    {
      "uri": "textures/Mat.4_baseColor.png"
    },
    {
      "uri": "textures/material_baseColor.png"
    }
  ],
  "materials": [
    {
      "doubleSided": true,
      "name": "Mat.2",
      "pbrMetallicRoughness": {
        "baseColorFactor": [
          0.9599999999999999,
          0.9124799999999998,
          0.0096,
          1.0
        ],
        "roughnessFactor": 0.7617316941186485
      }
    },
    {
      "doubleSided": true,
      "extensions": {
        "KHR_materials_specular": {
          "specularColorFactor": [
            1.0,
            1.0,
            1.0
          ],
          "specularFactor": 0.5306851139120442
        }
      },
      "name": "Mat.4",
      "pbrMetallicRoughness": {
        "baseColorTexture": {
          "index": 0
        }
      }
    },
    {
      "doubleSided": true,
      "name": "Mat.3",
      "pbrMetallicRoughness": {
        "baseColorFactor": [
          0.9599999999999999,
          0.5323200000000001,
          0.0096,
          1.0
        ],
        "metallicFactor": 0.8346937720786288,
        "roughnessFactor": 0.6036471918720245
      }
    },
    {
      "doubleSided": true,
      "extensions": {
        "KHR_materials_specular": {
          "specularColorFactor": [
            1.0,
            1.0,
            1.0
          ],
          "specularFactor": 1.0
        }
      },
      "name": "Mat.1",
      "pbrMetallicRoughness": {
        "baseColorFactor": [
          0.24951510619022432,
          0.24951510619022432,
          0.24951510619022432,
          1.0
        ],
        "roughnessFactor": 0.2382683058813515
      }
    },
    {
      "doubleSided": true,
      "extensions": {
        "KHR_materials_specular": {
          "specularColorFactor": [
            1.0,
            1.0,
            1.0
          ],
          "specularFactor": 0.0
        }
      },
      "name": "material",
      "pbrMetallicRoughness": {
        "baseColorTexture": {
          "index": 1
        },
        "metallicFactor": 0.8590144647319556,
        "roughnessFactor": 0.23218813271801975
      }
    }
  ],
  "meshes": [
    {
      "name": "Cube_1_Mat.2_0",
      "primitives": [
        {
          "attributes": {
            "NORMAL": 1,
            "POSITION": 0,
            "TEXCOORD_0": 2
          },
          "indices": 3,
          "material": 0,
          "mode": 4
        }
      ]
    },
    {
      "name": "Cube_1_Mat.4_0",
      "primitives": [
        {
          "attributes": {
            "NORMAL": 5,
            "POSITION": 4,
            "TEXCOORD_0": 6
          },
          "indices": 7,
          "material": 1,
          "mode": 4
        }
      ]
    },
    {
      "name": "Cube_1_Mat.3_0",
      "primitives": [
        {
          "attributes": {
            "NORMAL": 9,
            "POSITION": 8,
            "TEXCOORD_0": 10
          },
          "indices": 11,
          "material": 2,
          "mode": 4
        }
      ]
    },
    {
      "name": "Cube_1_Mat.1_0",
      "primitives": [
        {
          "attributes": {
            "NORMAL": 13,
            "POSITION": 12,
            "TEXCOORD_0": 14
          },
          "indices": 15,
          "material": 3,
          "mode": 4
        }
      ]
    },
    {
      "name": "Cube_1_Mat_0",
      "primitives": [
        {
          "attributes": {
            "NORMAL": 17,
            "POSITION": 16,
            "TEXCOORD_0": 18
          },
          "indices": 19,
          "material": 4,
          "mode": 4
        }
      ]
    }
  ],
  "nodes": [
    {
      "children": [
        1
      ],
      "matrix": [
        0.16226200759410858,
        0.0,
        0.0,
        0.0,
        0.0,
        3.602940337057627e-17,
        -0.16226200759410858,
        0.0,
        0.0,
        0.16226200759410858,
        3.602940337057627e-17,
        0.0,
        0.0,
        0.0,
        0.0,
        1.0
      ],
      "name": "Sketchfab_model"
    },
    {
      "children": [
        2
      ],
      "matrix": [
        0.009999999776482582,
        0.0,
        0.0,
        0.0,
        0.0,
        0.0,
        0.009999999776482582,
        0.0,
        0.0,
        -0.009999999776482582,
        0.0,
        0.0,
        0.0,
        0.0,
        0.0,
        1.0
      ],
      "name": "ce0307c09faf48449cd5ce61ec352403.fbx"
    },
    {
      "children": [
        3,
        5
      ],
      "name": "RootNode"
    },
    {
      "children": [
        4
      ],
      "matrix": [
        -0.09416022309573835,
        -0.7124569651685262,
        -0.6953696320442924,
        0.0,
        -0.09560153296537738,
        0.7017158062797599,
        -0.706013650088875,
        0.0,
        0.9909562045222942,
        -1.1102230246251565e-16,
        -0.13418569491107957,
        0.0,
        50.320804595947266,
        256.2319030761719,
        269.94488525390625,
        1.0
      ],
      "name": "CINEMA_4D_Editor"
    },
    {
      "name": "Object_4"
    },
    {
      "children": [
        6,
        7,
        8,
        9,
        10
      ],
      "matrix": [
        1.0,
        0.0,
        0.0,
        0.0,
        0.0,
        1.0,
        0.0,
        0.0,
        0.0,
        0.0,
        1.0,
        0.0,
        -3.47451114654541,
        5.480130672454834,
        27.297807693481445,
        1.0
      ],
      "name": "Cube_1"
    },
    {
      "mesh": 0,
      "name": "Cube_1_Mat.2_0"
    },
    {
      "mesh": 1,
      "name": "Cube_1_Mat.4_0"
    },
    {
      "mesh": 2,
      "name": "Cube_1_Mat.3_0"
    },
    {
      "mesh": 3,
      "name": "Cube_1_Mat.1_0"
    },
    {
      "mesh": 4,
      "name": "Cube_1_Mat_0"
    }
  ],
  "samplers": [
    {
      "magFilter": 9729,
      "minFilter": 9987,
      "wrapS": 10497,
      "wrapT": 10497
    }
  ],
  "scene": 0,
  "scenes": [
    {
      "name": "Sketchfab_Scene",
      "nodes": [
        0
      ]
    }
  ],
  "textures": [
    {
      "sampler": 0,
      "source": 0
    },
    {
      "sampler": 0,
      "source": 1
    }
  ]
}
